HIERARCHY
ROOT Hips
{
	OFFSET 0.000000 0.000000 0.000000
	CHANNELS 6 Xposition Yposition Zposition Xrotation Yrotation Zrotation
	JOINT Chest
	{
		OFFSET 0.000000 0.009282 11.569106
		CHANNELS 3 Xrotation Yrotation Zrotation
		JOINT Chest2
		{
			OFFSET 0.000000 -0.016863 9.269641
			CHANNELS 3 Xrotation Yrotation Zrotation
			JOINT Chest3
			{
				OFFSET 0.000000 0.000000 8.374491
				CHANNELS 3 Xrotation Yrotation Zrotation
				JOINT Chest4
				{
					OFFSET 0.000000 0.000000 8.374493
					CHANNELS 3 Xrotation Yrotation Zrotation
					JOINT Neck
					{
						OFFSET 0.000000 -0.000001 12.152554
						CHANNELS 3 Xrotation Yrotation Zrotation
						JOINT Head
						{
							OFFSET 0.000000 -0.040100 7.802319
							CHANNELS 3 Xrotation Yrotation Zrotation
							End Site
							{
								OFFSET 0.000000 -0.020946 14.853096
							}
						}
					}
					JOINT RightCollar
					{
						OFFSET -2.894404 0.000000 6.791374
						CHANNELS 3 Xrotation Yrotation Zrotation
						JOINT RightShoulder
						{
							OFFSET -13.574684 0.000000 0.000000
							CHANNELS 3 Xrotation Yrotation Zrotation
							JOINT RightElbow
							{
								OFFSET -23.923903 0.000000 0.000000
								CHANNELS 3 Xrotation Yrotation Zrotation
								JOINT RightWrist
								{
									OFFSET -19.846718 -0.012765 0.000000
									CHANNELS 3 Xrotation Yrotation Zrotation
									End Site
									{
										OFFSET -14.973145 0.000000 0.000000
									}
								}
							}
						}
					}
					JOINT LeftCollar
					{
						OFFSET 2.894404 0.000000 6.791374
						CHANNELS 3 Xrotation Yrotation Zrotation
						JOINT LeftShoulder
						{
							OFFSET 13.574684 0.000000 0.000000
							CHANNELS 3 Xrotation Yrotation Zrotation
							JOINT LeftElbow
							{
								OFFSET 23.923903 0.000000 0.000000
								CHANNELS 3 Xrotation Yrotation Zrotation
								JOINT LeftWrist
								{
									OFFSET 19.846718 -0.012765 0.000000
									CHANNELS 3 Xrotation Yrotation Zrotation
									End Site
									{
										OFFSET 14.973145 0.000000 0.000000
									}
								}
							}
						}
					}
				}
			}
		}
	}
	JOINT RightHip
	{
		OFFSET -9.469263 -0.004642 0.045487
		CHANNELS 3 Xrotation Yrotation Zrotation
		JOINT RightKnee
		{
			OFFSET 0.000000 -0.002666 -40.478676
			CHANNELS 3 Xrotation Yrotation Zrotation
			JOINT RightAnkle
			{
				OFFSET 0.000000 -0.049110 -35.224068
				CHANNELS 3 Xrotation Yrotation Zrotation
				JOINT RightToe
				{
					OFFSET 0.000000 -12.539530 -6.151390
					CHANNELS 3 Xrotation Yrotation Zrotation
					End Site
					{
						OFFSET 0.000000 -5.044995 -1.291870
					}
				}
			}
		}
	}
	JOINT LeftHip
	{
		OFFSET 9.469263 -0.004642 0.045487
		CHANNELS 3 Xrotation Yrotation Zrotation
		JOINT LeftKnee
		{
			OFFSET 0.000000 -0.002666 -40.478676
			CHANNELS 3 Xrotation Yrotation Zrotation
			JOINT LeftAnkle
			{
				OFFSET 0.000000 -0.049110 -35.224068
				CHANNELS 3 Xrotation Yrotation Zrotation
				JOINT LeftToe
				{
					OFFSET 0.000000 -12.539530 -6.151390
					CHANNELS 3 Xrotation Yrotation Zrotation
					End Site
					{
						OFFSET 0.000000 -5.044995 -1.291870
					}
				}
			}
		}
	}
}
MOTION
Frames: 16
Frame Time: 0.016667
-17.682377 -1.749789 75.426743 7.379969 -7.261351 -96.155683 5.786053 -9.169649 -7.267261 2.809342 -3.774796 -3.448399 2.809336 -3.774796 -3.448398 2.127642 -2.815432 -2.602797 19.083851 2.709114 2.494626 -0.821647 4.151815 5.427013 -4.671176 -4.712202 -2.519349 -59.902788 -29.811730 -17.052342 -26.046716 -3.074870 10.061467 -26.865704 41.576741 32.292127 -3.395551 11.904233 -7.577306 28.801272 68.077609 -62.457415 49.018031 14.090250 -27.129870 0.662944 -19.199027 -35.199127 -41.334133 -4.492469 -7.809477 50.343187 -19.768483 -14.071201 -17.574034 7.895618 7.393918 0.155792 0.835409 -0.059386 -4.517925 10.298548 5.756647 31.020305 16.185016 27.780263 52.758615 -19.800805 -0.277149 -95.637204 -14.738466 -16.291560 
-17.993690 -1.884203 75.172409 7.176328 -7.091020 -95.926483 5.627094 -8.933162 -7.311659 2.757936 -3.711098 -3.340408 2.757937 -3.711097 -3.340405 2.088112 -2.768418 -2.521256 19.220873 2.586982 2.398652 -0.560285 3.964608 5.207798 -4.591630 -4.825849 -2.737022 -60.708169 -29.853585 -16.477025 -27.619823 -4.157224 11.586727 -28.560305 42.648818 33.216412 -3.445193 11.773238 -7.418571 29.546811 68.966988 -61.756918 48.819119 13.472221 -25.426689 0.853851 -19.608746 -35.130286 -40.464745 -4.039513 -7.931192 49.032671 -19.646677 -14.297795 -16.971372 7.758151 7.805849 0.130451 0.714704 -0.056977 -4.117324 9.998591 6.266708 31.918430 15.987934 28.433640 54.782226 -18.087137 -1.904701 -98.919581 -15.445226 -17.971537 
-18.120953 -2.080850 74.975014 6.657499 -6.950848 -95.975189 5.425367 -8.365668 -7.163598 2.707516 -3.626990 -3.252730 2.707519 -3.626994 -3.252730 2.049352 -2.705992 -2.454866 19.361498 2.481596 2.332873 -0.293489 3.798134 5.049452 -4.590089 -4.951170 -2.955037 -61.622547 -29.961598 -15.978244 -28.830652 -5.348640 13.117681 -30.300587 43.705411 34.270303 -3.367177 11.636728 -7.285845 29.759708 69.715802 -60.533023 48.491628 12.882165 -23.913940 1.175871 -20.017835 -34.928877 -39.652339 -3.525390 -7.737487 48.255437 -19.571912 -14.041259 -17.014846 7.869620 8.002262 0.287072 0.450100 -0.028684 -3.896927 9.905665 6.953548 31.921750 15.789142 28.902946 58.822607 -16.357357 -2.650586 -70.003989 -15.256945 -10.608663 
-18.368702 -2.121300 74.870125 6.325258 -6.792725 -96.036319 5.261688 -7.964354 -6.912616 2.653001 -3.517042 -3.183576 2.653004 -3.517043 -3.183572 2.007533 -2.624112 -2.402266 19.509443 2.357962 2.280999 -0.012502 3.593900 4.910886 -4.572665 -5.037766 -3.218244 -62.715255 -30.190427 -15.663702 -29.673173 -6.601308 14.662664 -31.994539 44.701126 35.420401 -3.302847 11.527969 -7.235975 29.375213 70.204127 -58.623650 48.051952 12.338132 -22.505496 1.224951 -20.330997 -34.941813 -38.769913 -3.385215 -7.671778 47.026317 -19.293812 -13.971698 -16.958082 8.137194 8.162243 0.658784 0.127524 0.007358 -4.052224 9.337085 7.658069 32.293244 15.849346 29.159649 63.245639 -15.107147 -2.717827 -38.104662 -10.513265 -3.164748 
-18.615944 -2.114850 74.855713 5.899266 -6.442006 -96.189547 5.308479 -7.417809 -6.497009 2.599583 -3.377550 -3.130795 2.599585 -3.377551 -3.130798 1.966501 -2.519981 -2.361848 19.658184 2.189395 2.234228 0.271736 3.305735 4.768037 -4.601956 -5.144578 -3.562953 -63.726491 -30.589009 -15.425477 -30.306284 -7.809936 16.257573 -33.524122 45.604695 36.504820 -3.372211 11.440145 -7.248734 28.841819 70.419455 -56.448051 47.459214 11.784936 -21.044677 1.006503 -20.499080 -35.186765 -37.568250 -3.388506 -7.416137 45.796760 -18.909915 -13.926653 -17.295846 8.429265 8.232861 1.259113 -0.224857 0.094830 -4.287383 8.624052 8.712360 33.059441 15.960386 29.138881 67.181345 -14.239656 -2.394832 -15.689916 -4.734046 0.087356 
-18.936329 -2.003764 74.934166 5.511477 -5.999017 -96.094970 5.422937 -6.908196 -6.234717 2.546470 -3.219035 -3.088395 2.546473 -3.219035 -3.088390 1.925687 -2.401532 -2.329153 19.813387 1.982028 2.178389 0.569152 2.949390 4.597081 -4.644636 -5.251200 -3.924131 -64.484963 -31.104033 -15.192825 -30.932677 -8.994067 17.914854 -34.978232 46.414127 37.539266 -3.499118 11.382869 -7.285475 28.480900 70.420896 -54.402129 46.686969 11.229708 -19.524506 0.897474 -20.612958 -35.261343 -36.283235 -3.365352 -7.269348 44.452630 -18.508986 -13.796655 -17.367187 8.884777 8.063980 1.700962 -0.568326 0.192045 -4.637369 7.585244 9.527011 34.309010 16.142601 29.301877 69.630391 -12.882984 -2.544337 -5.829584 -2.111332 1.161242 
-19.240017 -1.848340 75.101257 5.119986 -5.608443 -95.895528 5.490866 -6.440558 -6.011235 2.512587 -3.059324 -3.051857 2.512591 -3.059326 -3.051857 1.899338 -2.282067 -2.300981 19.943568 1.791507 2.104741 0.818732 2.628118 4.400261 -4.649771 -5.297293 -4.207456 -65.054615 -31.637586 -14.925013 -31.524076 -10.143203 19.591701 -36.529218 47.227282 38.733904 -3.463723 11.319398 -7.320980 27.801665 70.457964 -52.264068 45.923996 10.643906 -18.112827 1.033313 -20.610837 -34.960480 -35.012888 -3.347465 -7.039631 43.054750 -18.159200 -13.796658 -17.257655 9.345931 7.882346 1.955709 -0.843491 0.211798 -5.271713 6.355592 10.118072 36.028295 16.245340 29.675843 70.300842 -11.571823 -2.894607 -2.557555 -1.297616 1.515943 
-19.600300 -1.662848 75.337685 4.732590 -5.172386 -95.569564 5.597496 -5.986686 -5.833277 2.488731 -2.886749 -2.995455 2.488735 -2.886749 -2.995455 1.880365 -2.152971 -2.257923 20.058056 1.607230 1.995146 1.038172 2.328419 4.140698 -4.504225 -5.342076 -4.446714 -65.658964 -32.062363 -14.667153 -31.849753 -11.156200 21.239100 -38.167353 48.090771 40.086257 -3.285021 11.259861 -7.461631 26.452399 70.482634 -49.660564 45.163041 10.135989 -16.831898 1.345948 -20.560806 -34.454828 -33.712789 -3.271103 -6.833963 41.668180 -17.830438 -13.955962 -16.976980 9.800597 7.723469 2.035419 -1.074423 0.188083 -5.994335 5.010949 10.320258 38.005543 16.273539 30.007825 69.282536 -10.603015 -3.802967 -1.298072 -1.068118 1.615495 
-19.945755 -1.462198 75.627312 4.378010 -4.868406 -95.161802 5.570685 -5.611017 -5.684374 2.462628 -2.703551 -2.920543 2.462624 -2.703552 -2.920544 1.859605 -2.015992 -2.200940 20.174352 1.449554 1.857376 1.259309 2.085527 3.838285 -4.372572 -5.377786 -4.625326 -66.221532 -32.300395 -14.379659 -31.970452 -12.050426 22.790933 -39.616805 48.843639 41.313513 -3.224484 11.297630 -7.604103 24.634737 70.470272 -46.554423 44.465221 9.728885 -15.611331 1.607173 -20.580478 -34.074021 -32.555400 -3.193993 -6.777983 40.330375 -17.449646 -14.192961 -16.481643 10.220655 7.697131 1.894378 -1.240872 0.130628 -6.922270 3.520838 10.183684 40.071453 16.331768 30.044858 66.637709 -9.621119 -5.646730 -0.299909 -1.178782 1.902011 
-20.300915 -1.255644 75.952766 4.090804 -4.635614 -94.639463 5.463725 -5.353410 -5.617900 2.433573 -2.501871 -2.828612 2.433571 -2.501869 -2.828611 1.836518 -1.865225 -2.131131 20.299927 1.310168 1.707176 1.496551 1.879578 3.519079 -4.321199 -5.410908 -4.799000 -66.711441 -32.450738 -14.071427 -32.057370 -12.924133 24.266340 -40.705861 49.397612 42.240075 -3.351328 11.386882 -7.672346 22.718147 70.414565 -43.286331 43.851423 9.371681 -14.376479 1.664628 -20.619050 -33.919682 -31.493203 -3.076343 -6.951072 39.075932 -17.054410 -14.411805 -15.842089 10.535709 7.764224 1.606398 -1.278750 0.018927 -8.024081 1.925386 9.821917 42.190505 16.479754 29.682824 62.452429 -9.778254 -7.451238 0.744569 -0.858636 1.451551 
-20.636196 -1.061733 76.308189 3.916501 -4.506796 -94.114570 5.273018 -5.248419 -5.522922 2.400519 -2.290754 -2.722665 2.400516 -2.290755 -2.722665 1.810400 -1.707445 -2.050767 20.431013 1.190335 1.551210 1.743045 1.710655 3.195598 -4.376058 -5.435133 -4.971045 -67.115727 -32.566222 -13.737174 -32.189066 -13.871552 25.688963 -41.641088 49.783681 43.004818 -3.619645 11.549724 -7.704267 20.656299 70.316155 -39.790432 43.325597 8.971955 -13.211352 1.667836 -20.617059 -33.789356 -30.495350 -2.991350 -7.275542 37.788063 -16.688362 -14.546886 -15.076242 10.737000 7.875367 1.254552 -1.176817 -0.161984 -9.393015 0.232381 9.468556 44.302998 16.622642 28.935512 57.332020 -11.918165 -7.146305 1.574855 0.890878 -0.927763 
-20.951044 -0.886008 76.685951 3.704667 -4.377570 -93.684193 5.086497 -5.127392 -5.370311 2.371278 -2.067965 -2.608778 2.371276 -2.067964 -2.608781 1.787131 -1.540914 -1.964438 20.562425 1.089511 1.411033 1.989383 1.571173 2.907090 -4.388301 -5.473288 -5.062010 -67.615936 -32.618108 -13.399910 -32.220181 -14.862702 27.072747 -42.625947 50.094947 43.795849 -3.896806 11.683292 -7.641128 18.305325 70.244138 -36.007589 42.895760 8.533502 -12.292505 1.819169 -20.635953 -33.491105 -29.456386 -2.882864 -7.628966 36.391869 -16.347996 -14.494879 -14.259069 10.968497 7.850127 0.966675 -1.032900 -0.273594 -10.911675 -1.370766 9.333056 46.250479 16.494685 28.053539 51.770904 -14.512731 -4.794233 -29.561124 2.254094 -3.093737 
-21.277592 -0.744701 77.077667 3.367628 -4.137619 -93.358488 5.014317 -4.886186 -5.184373 2.348791 -1.854201 -2.493945 2.348793 -1.854200 -2.493949 1.769042 -1.381120 -1.877461 20.685938 1.025675 1.289544 2.220065 1.493095 2.664186 -4.364673 -5.497375 -5.077313 -68.172828 -32.650951 -13.000931 -31.984058 -15.726627 28.445178 -43.597033 50.440196 44.614621 -3.906371 11.745188 -7.550872 15.174138 70.265428 -31.741907 42.530755 8.081303 -11.609585 2.076103 -20.683512 -33.191332 -28.270554 -2.680490 -8.038044 34.966388 -15.974824 -14.289809 -13.508338 11.173564 7.668369 0.775446 -0.866444 -0.323114 -12.422004 -2.771409 9.401298 47.999995 16.016606 27.337612 45.656058 -17.037244 -1.520118 -41.437498 8.316483 -2.366539 
-21.622528 -0.661768 77.480774 2.895644 -3.841068 -93.137860 4.997986 -4.487693 -4.960573 2.330481 -1.647749 -2.377038 2.330485 -1.647750 -2.377042 1.754185 -1.226792 -1.788974 20.815182 0.973807 1.191430 2.461101 1.429671 2.467707 -4.355103 -5.554090 -5.045030 -68.592318 -32.709933 -12.448795 -31.559541 -16.379565 29.788326 -44.367929 50.753111 45.376437 -3.799967 11.760017 -7.423449 11.426940 70.285133 -27.008369 42.130751 7.682475 -11.069899 2.291800 -20.757939 -33.143653 -27.051618 -2.379792 -8.364412 33.624434 -15.499388 -14.366538 -12.972709 11.066442 7.906558 0.722877 -0.641816 -0.428583 -13.833168 -3.965420 9.660757 49.324361 15.246393 26.850823 39.094961 -19.552320 1.851392 -45.599931 15.405866 0.113413 
-21.971840 -0.613623 77.891022 2.405661 -3.567848 -93.014855 4.989941 -4.056908 -4.680115 2.318903 -1.440669 -2.254963 2.318903 -1.440668 -2.254963 1.744430 -1.071981 -1.696630 20.947898 0.902937 1.115026 2.708955 1.324780 2.305475 -4.389783 -5.652260 -4.994204 -68.824374 -32.855279 -11.734223 -31.059360 -16.822039 31.077675 -44.869418 50.980710 46.017078 -3.803701 11.748428 -7.201520 7.853889 70.181778 -22.455217 41.588428 7.365536 -10.569330 2.260480 -20.856360 -33.307438 -25.866888 -2.090923 -8.613598 32.295996 -15.030606 -14.647300 -12.505894 10.820550 8.374464 0.701191 -0.392870 -0.543411 -15.166377 -5.126967 10.013779 50.248493 14.247699 26.615589 32.371992 -21.628054 4.557466 -45.594159 21.914356 2.907790 
-22.307018 -0.588206 78.305717 1.863892 -3.317765 -92.980171 4.986703 -3.564614 -4.323868 2.314256 -1.228919 -2.116325 2.314255 -1.228920 -2.116328 1.739904 -0.913704 -1.591865 21.086338 0.788022 1.036325 2.968183 1.139757 2.126357 -4.521557 -5.738765 -5.070721 -68.855560 -33.163738 -10.944138 -30.562832 -17.230474 32.339402 -45.244321 51.129123 46.545898 -3.781702 11.689917 -6.991385 4.472533 69.947202 -18.211876 40.947056 7.122683 -10.140266 1.952870 -20.936555 -33.435709 -24.709104 -1.791680 -8.813663 30.917292 -14.552652 -14.719191 -11.952971 10.645358 8.584300 0.672982 -0.199910 -0.581971 -16.471078 -6.249561 10.324827 50.710589 13.132832 26.781110 26.266374 -23.753977 6.237064 -43.597309 27.469399 5.233209 
